<svg width="454" height="454" viewBox="0 0 454 454" fill="none" xmlns="http://www.w3.org/2000/svg">
<path d="M258.833 388.649L130.968 288.982V166.437L258.833 66.8586V388.649V388.649ZM94.4355 279.76H46.2867V175.393H94.4355V279.76ZM267.08 13.5668L107.382 139.392H28.0203C17.9117 139.392 9.75391 147.461 9.75391 157.393V297.672C9.75391 307.603 17.9117 315.672 28.0203 315.672H108.889L267.08 440.433C278.43 449.389 295.366 441.409 295.366 427.044V26.9563C295.366 12.5914 278.518 4.52227 267.08 13.5668V13.5668Z" fill="white"/>
<path d="M424 274L331 181" stroke="white" stroke-width="24" stroke-miterlimit="3.86874" stroke-linecap="round"/>
<path d="M331 274L424 181" stroke="white" stroke-width="24" stroke-miterlimit="3.86874" stroke-linecap="round"/>
</svg>
