<?xml version="1.0" encoding="UTF-8"?>
<svg width="39px" height="39px" viewBox="0 0 39 39" version="1.1" xmlns="http://www.w3.org/2000/svg" xmlns:xlink="http://www.w3.org/1999/xlink">
    <!-- Generator: Sketch 55.2 (78181) - https://sketchapp.com -->
    <title>play-audio-player-icon-white</title>
    <desc>Created with Sketch.</desc>
    <g id="Page-1" stroke="none" stroke-width="1" fill="none" fill-rule="evenodd">
        <g id="Artboard" transform="translate(-63.000000, -13.000000)" fill="#FFFFFF">
            <path d="M82.5,52 C71.7304474,52 63,43.2695526 63,32.5 C63,21.7304474 71.7304474,13 82.5,13 C93.2695526,13 102,21.7304474 102,32.5 C102,43.2695526 93.2695526,52 82.5,52 Z M82.5,50 C92.1649831,50 100,42.1649831 100,32.5 C100,22.8350169 92.1649831,15 82.5,15 C72.8350169,15 65,22.8350169 65,32.5 C65,42.1649831 72.8350169,50 82.5,50 Z M76,22 L94,32.5 L76,43 L76,22 Z M78,26 L78,39 L90,32.5 L78,26 Z" id="play-audio-player-icon-white"></path>
        </g>
    </g>
</svg>