<?xml version="1.0" encoding="UTF-8"?>
<svg width="39px" height="39px" viewBox="0 0 39 39" version="1.1" xmlns="http://www.w3.org/2000/svg" xmlns:xlink="http://www.w3.org/1999/xlink">
    <!-- Generator: Sketch 55.2 (78181) - https://sketchapp.com -->
    <title>stop-audio-player-icon-white copy</title>
    <desc>Created with Sketch.</desc>
    <g id="Page-1" stroke="none" stroke-width="1" fill="none" fill-rule="evenodd">
        <g id="Artboard" transform="translate(-13.000000, -13.000000)" fill="#FFFFFF">
            <path d="M32.5,52 C21.7304474,52 13,43.2695526 13,32.5 C13,21.7304474 21.7304474,13 32.5,13 C43.2695526,13 52,21.7304474 52,32.5 C52,43.2695526 43.2695526,52 32.5,52 Z M32.5,50 C42.1649831,50 50,42.1649831 50,32.5 C50,22.8350169 42.1649831,15 32.5,15 C22.8350169,15 15,22.8350169 15,32.5 C15,42.1649831 22.8350169,50 32.5,50 Z M36.5,22 L38.6,23.4 L38.6,40.9 L36.5,42.1 L36.5,22 Z M26.5,22 L28.6,23.4 L28.6,40.9 L26.5,42.1 L26.5,22 Z" id="stop-audio-player-icon-white-copy"></path>
        </g>
    </g>
</svg>